<?xml version="1.0"?>

<svg width="100" height="49" viewBox="0 0 100 49" version="1.1" xmlns="http://www.w3.org/2000/svg" xmlns:xlink="http://www.w3.org/1999/xlink" xmlns:sketch="http://www.bohemiancoding.com/sketch/ns">
    
    <title>Imported Layers</title>
    <desc>Created with Sketch.</desc>
    <defs></defs>
    <g id="Screens" stroke="none" stroke-width="1" fill="none" fill-rule="evenodd" sketch:type="MSPage">
        <g id="lay_Excell_00_Home@1200" sketch:type="MSArtboardGroup" transform="translate(-130.000000, -56.000000)">
            <g id="Hero+Navi" sketch:type="MSLayerGroup">
                <g id="Imported-Layers" transform="translate(130.000000, 56.000000)" sketch:type="MSShapeGroup">
                    <path d="M26.7115132,18.5930523 C26.7115132,25.6878769 18.0254934,33.1719662 13.2447368,48.4693969 C8.12236842,33.1747385 0.0564144737,27.3858338 0.0564144737,18.5930523 C0.0564144737,10.8201538 5.54440789,4.51886154 13.3840461,4.51886154 C21.2235197,4.51886154 26.7115132,10.8201538 26.7115132,18.5930523" id="Fill-1" fill="#DD4263"></path>
                    <path d="M20.5911184,22.6592123 C18.9838816,25.0327969 16.0087171,25.8804708 13.3070724,25.8804708 C8.72467105,25.8804708 4.96282895,22.5574523 4.96282895,17.5730062 C4.96282895,12.5887231 8.72467105,9.36762769 13.3070724,9.36762769 C17.8554276,9.36762769 21.4804276,12.7244031 21.4804276,17.7086862 C21.4804276,18.1155631 21.4462171,18.75988 21.4120066,19.1667569 L9.71644737,19.1667569 C9.95575658,20.9977846 11.9733553,21.8115385 13.6491776,21.8115385 C14.9486842,21.8115385 16.3506579,21.3368215 17.1373355,20.3197108 L20.5911184,22.6592123 L20.5911184,22.6592123 Z M16.6927632,16.2168585 C16.4532895,14.2840708 14.675,13.5042369 13.3412829,13.5042369 C12.0075658,13.5042369 10.1950658,14.2163938 9.78470395,16.2168585 L16.6927632,16.2168585 L16.6927632,16.2168585 Z" id="Fill-2" fill="#FFFFFF"></path>
                    <path d="M28.1320724,9.23243692 L33.3220395,9.23243692 L36.2258224,13.37084 L39.0567434,9.23243692 L44.246875,9.23243692 L38.6939145,16.8975415 L45.3356908,26.0381662 L40.1817434,26.0381662 L36.1894737,20.4242431 L32.1606908,26.0381662 L27.0069079,26.0381662 L33.6851974,16.8975415 L28.1320724,9.23243692" id="Fill-3" fill="#DD4263"></path>
                    <path d="M54.0827303,8.87252615 C56.9136513,8.87252615 59.5269737,10.0602154 61.1240132,12.1472738 L57.6032895,14.7744431 C56.8049342,13.6947108 55.4620066,13.1188862 54.0827303,13.1188862 C51.6146382,13.1188862 49.328125,14.84636 49.328125,17.5813231 C49.328125,20.3162862 51.6146382,22.1875938 54.0827303,22.1875938 C55.4620066,22.1875938 56.8049342,21.5758923 57.6032895,20.4963231 L61.1601974,23.0872892 C59.5631579,25.1745108 56.95,26.3980769 54.0827303,26.3980769 C49.2192434,26.3980769 44.9365132,22.8713754 44.9365132,17.5813231 C44.9365132,12.2912708 49.2192434,8.87252615 54.0827303,8.87252615" id="Fill-4" fill="#DD4263"></path>
                    <path d="M79.4527961,19.09272 L66.5317434,19.09272 C66.8222039,21.3239385 68.7095395,22.6915015 71.2138158,22.6915015 C72.9197368,22.6915015 74.6618421,21.97168 75.4603618,20.5322 C76.5128289,21.1080246 77.746875,21.7557662 78.8356908,22.3315908 C77.3115132,25.2105508 74.0449013,26.3980769 70.9235197,26.3980769 C66.0962171,26.3980769 62.1401316,22.8713754 62.1401316,17.5813231 C62.1401316,12.2912708 66.0962171,8.87252615 70.9235197,8.87252615 C75.7506579,8.87252615 79.5253289,12.2912708 79.5253289,17.5813231 C79.5253289,18.0131508 79.4891447,18.6969323 79.4527961,19.09272 L79.4527961,19.09272 Z M75.20625,16.1058031 C74.8797697,13.8026677 73.1375,12.5432246 70.9597039,12.5432246 C68.6368421,12.5432246 66.8222039,13.8387077 66.4955592,16.1058031 L75.20625,16.1058031 L75.20625,16.1058031 Z" id="Fill-5" fill="#DD4263"></path>
                    <path d="M90.3047697,26.0381662 L87.9455592,26.0381662 C83.2271382,26.0381662 81.6300987,23.1233292 81.6300987,18.7688492 L81.6300987,0.0918123077 L86.0944079,0.0918123077 L86.0944079,18.8407662 C86.0580592,20.2802462 86.4574013,22.00772 88.5986842,22.00772 L90.3047697,22.00772 L90.3047697,26.0381662" id="Fill-6" fill="#DD4263"></path>
                    <path d="M99.9225329,26.0381662 L97.5633224,26.0381662 C92.8450658,26.0381662 91.2480263,23.1233292 91.2480263,18.7688492 L91.2480263,0.0918123077 L95.7123355,0.0918123077 L95.7123355,18.8407662 C95.6759868,20.2802462 96.0753289,22.00772 98.2166118,22.00772 L99.9225329,22.00772 L99.9225329,26.0381662" id="Fill-7" fill="#DD4263"></path>
                </g>
            </g>
        </g>
    </g>
</svg>